<mxfile host="app.diagrams.net" agent="Mozilla/5.0 (Windows NT 10.0; Win64; x64) AppleWebKit/537.36 (KHTML, like Gecko) Chrome/129.0.0.0 Safari/537.36" version="24.8.3">
  <diagram name="Page-1" id="glL89L1skpGHFHGlubFX">
    <mxGraphModel dx="1167" dy="687" grid="1" gridSize="10" guides="1" tooltips="1" connect="1" arrows="1" fold="1" page="1" pageScale="1" pageWidth="850" pageHeight="1100" math="0" shadow="0">
      <root>
        <mxCell id="0" />
        <mxCell id="1" parent="0" />
        <mxCell id="_6JiYmLFMHh-bkGQwdYW-75" value="" style="rounded=0;whiteSpace=wrap;html=1;" vertex="1" parent="1">
          <mxGeometry y="1030" width="850" height="70" as="geometry" />
        </mxCell>
        <mxCell id="_6JiYmLFMHh-bkGQwdYW-2" value="" style="rounded=0;whiteSpace=wrap;html=1;" vertex="1" parent="1">
          <mxGeometry width="850" height="70" as="geometry" />
        </mxCell>
        <mxCell id="_6JiYmLFMHh-bkGQwdYW-1" value="" style="verticalLabelPosition=bottom;shadow=0;dashed=0;align=center;html=1;verticalAlign=top;strokeWidth=1;shape=mxgraph.mockup.graphics.simpleIcon;strokeColor=#999999;" vertex="1" parent="1">
          <mxGeometry x="20" width="70" height="70" as="geometry" />
        </mxCell>
        <mxCell id="_6JiYmLFMHh-bkGQwdYW-7" value="" style="swimlane;shape=mxgraph.bootstrap.anchor;strokeColor=#666666;fillColor=default;fontColor=#666666;fontStyle=0;childLayout=stackLayout;horizontal=0;startSize=0;horizontalStack=1;resizeParent=1;resizeParentMax=0;resizeLast=0;collapsible=0;marginBottom=0;whiteSpace=wrap;html=1;" vertex="1" parent="1">
          <mxGeometry x="180" width="640" height="70" as="geometry" />
        </mxCell>
        <mxCell id="_6JiYmLFMHh-bkGQwdYW-8" value="&lt;font color=&quot;#33001a&quot;&gt;Home&lt;/font&gt;" style="text;strokeColor=default;align=center;verticalAlign=middle;spacingLeft=10;spacingRight=10;overflow=hidden;points=[[0,0.5],[1,0.5]];portConstraint=eastwest;rotatable=0;whiteSpace=wrap;html=1;shape=mxgraph.mockup.leftButton;rSize=10;fillColor=default;fontColor=#ffffff;fontSize=17;fontStyle=1;" vertex="1" parent="_6JiYmLFMHh-bkGQwdYW-7">
          <mxGeometry width="160" height="70" as="geometry" />
        </mxCell>
        <mxCell id="_6JiYmLFMHh-bkGQwdYW-9" value="Rivers" style="text;strokeColor=inherit;align=center;verticalAlign=middle;spacingLeft=10;spacingRight=10;overflow=hidden;points=[[0,0.5],[1,0.5]];portConstraint=eastwest;rotatable=0;whiteSpace=wrap;html=1;rSize=5;fillColor=inherit;fontColor=inherit;fontSize=17;fontStyle=1;" vertex="1" parent="_6JiYmLFMHh-bkGQwdYW-7">
          <mxGeometry x="160" width="160" height="70" as="geometry" />
        </mxCell>
        <mxCell id="_6JiYmLFMHh-bkGQwdYW-10" value="Site Map" style="text;strokeColor=inherit;align=center;verticalAlign=middle;spacingLeft=10;spacingRight=10;overflow=hidden;points=[[0,0.5],[1,0.5]];portConstraint=eastwest;rotatable=0;whiteSpace=wrap;html=1;rSize=5;fillColor=inherit;fontColor=inherit;fontSize=17;fontStyle=1;" vertex="1" parent="_6JiYmLFMHh-bkGQwdYW-7">
          <mxGeometry x="320" width="160" height="70" as="geometry" />
        </mxCell>
        <mxCell id="_6JiYmLFMHh-bkGQwdYW-11" value="Contact Us" style="text;strokeColor=inherit;align=center;verticalAlign=middle;spacingLeft=10;spacingRight=10;overflow=hidden;points=[[0,0.5],[1,0.5]];portConstraint=eastwest;rotatable=0;whiteSpace=wrap;html=1;shape=mxgraph.mockup.rightButton;rSize=10;fillColor=inherit;fontColor=inherit;fontSize=17;fontStyle=1;" vertex="1" parent="_6JiYmLFMHh-bkGQwdYW-7">
          <mxGeometry x="480" width="160" height="70" as="geometry" />
        </mxCell>
        <mxCell id="_6JiYmLFMHh-bkGQwdYW-14" value="&lt;font style=&quot;font-size: 30px;&quot;&gt;Explore the Rivers we offer!&lt;/font&gt;" style="text;html=1;align=center;verticalAlign=middle;whiteSpace=wrap;rounded=0;fontSize=30;" vertex="1" parent="1">
          <mxGeometry x="232" y="90" width="386" height="80" as="geometry" />
        </mxCell>
        <mxCell id="_6JiYmLFMHh-bkGQwdYW-16" value="" style="rounded=0;whiteSpace=wrap;html=1;fillColor=none;" vertex="1" parent="1">
          <mxGeometry x="30" y="210" width="790" height="200" as="geometry" />
        </mxCell>
        <mxCell id="_6JiYmLFMHh-bkGQwdYW-20" value="" style="verticalLabelPosition=bottom;shadow=0;dashed=0;align=center;html=1;verticalAlign=top;strokeWidth=1;shape=mxgraph.mockup.graphics.simpleIcon;strokeColor=#999999;" vertex="1" parent="1">
          <mxGeometry x="30" y="210" width="210" height="200" as="geometry" />
        </mxCell>
        <mxCell id="_6JiYmLFMHh-bkGQwdYW-27" value="" style="group" vertex="1" connectable="0" parent="1">
          <mxGeometry x="81" y="230" width="719" height="160" as="geometry" />
        </mxCell>
        <mxCell id="_6JiYmLFMHh-bkGQwdYW-19" value="&lt;b&gt;&amp;nbsp;River 1&lt;/b&gt;" style="text;html=1;align=center;verticalAlign=middle;whiteSpace=wrap;rounded=0;fontSize=20;" vertex="1" parent="_6JiYmLFMHh-bkGQwdYW-27">
          <mxGeometry width="108" height="30" as="geometry" />
        </mxCell>
        <mxCell id="_6JiYmLFMHh-bkGQwdYW-24" value="&lt;span style=&quot;color: rgb(62, 62, 62); font-family: &amp;quot;Trebuchet MS&amp;quot;, &amp;quot;Lucida Sans Unicode&amp;quot;, &amp;quot;Lucida Grande&amp;quot;, &amp;quot;Lucida Sans&amp;quot;, Arial, sans-serif; background-color: rgb(255, 255, 255); font-size: 11px;&quot;&gt;Nestled deep in the Frank Church Wilderness of No Return winds the Salmon river. The Salmon was given the nickname long ago as the River of No Return by the people living near it because of the number of folks that came to visit and fell so in love with the rugged beauty of the river that they never left.&lt;/span&gt;" style="text;html=1;align=left;verticalAlign=top;whiteSpace=wrap;rounded=0;fontSize=11;" vertex="1" parent="_6JiYmLFMHh-bkGQwdYW-27">
          <mxGeometry x="199" y="-10" width="160" height="160" as="geometry" />
        </mxCell>
        <mxCell id="_6JiYmLFMHh-bkGQwdYW-25" value="&lt;span style=&quot;color: rgb(62, 62, 62); font-family: &amp;quot;Trebuchet MS&amp;quot;, &amp;quot;Lucida Sans Unicode&amp;quot;, &amp;quot;Lucida Grande&amp;quot;, &amp;quot;Lucida Sans&amp;quot;, Arial, sans-serif; background-color: rgb(255, 255, 255); font-size: 11px;&quot;&gt;Herds of elk and deer graze on the hillsides around the river and bear and bighorn sheep are also commonly sighted. The river corridor is also lined with awe inspiring ponderosa pine which tower over the sandy beaches in the campsites and provide shelter from sun or rain when needed.&lt;/span&gt;" style="text;html=1;align=left;verticalAlign=top;whiteSpace=wrap;rounded=0;fontSize=11;" vertex="1" parent="_6JiYmLFMHh-bkGQwdYW-27">
          <mxGeometry x="377" y="-10" width="160" height="160" as="geometry" />
        </mxCell>
        <mxCell id="_6JiYmLFMHh-bkGQwdYW-26" value="&lt;span style=&quot;color: rgb(62, 62, 62); font-family: &amp;quot;Trebuchet MS&amp;quot;, &amp;quot;Lucida Sans Unicode&amp;quot;, &amp;quot;Lucida Grande&amp;quot;, &amp;quot;Lucida Sans&amp;quot;, Arial, sans-serif; background-color: rgb(255, 255, 255); font-size: 11px;&quot;&gt;Let&#39;s not forget the rapids! They range from class I-IV. The Salmon is one of the longest undammed rivers in the United States. As a free flowing river the water is higher, faster, and colder in the early summer and lower, slower, and warmer in the late summer.&lt;/span&gt;" style="text;html=1;align=left;verticalAlign=top;whiteSpace=wrap;rounded=0;fontSize=11;" vertex="1" parent="_6JiYmLFMHh-bkGQwdYW-27">
          <mxGeometry x="559" y="-10" width="160" height="160" as="geometry" />
        </mxCell>
        <mxCell id="_6JiYmLFMHh-bkGQwdYW-44" value="" style="verticalLabelPosition=bottom;shadow=0;dashed=0;align=center;html=1;verticalAlign=top;strokeWidth=1;shape=mxgraph.mockup.graphics.simpleIcon;strokeColor=#999999;" vertex="1" parent="1">
          <mxGeometry x="760" y="1040" width="50" height="50" as="geometry" />
        </mxCell>
        <mxCell id="_6JiYmLFMHh-bkGQwdYW-45" value="" style="verticalLabelPosition=bottom;shadow=0;dashed=0;align=center;html=1;verticalAlign=top;strokeWidth=1;shape=mxgraph.mockup.graphics.simpleIcon;strokeColor=#999999;" vertex="1" parent="1">
          <mxGeometry x="700" y="1040" width="50" height="50" as="geometry" />
        </mxCell>
        <mxCell id="_6JiYmLFMHh-bkGQwdYW-46" value="" style="verticalLabelPosition=bottom;shadow=0;dashed=0;align=center;html=1;verticalAlign=top;strokeWidth=1;shape=mxgraph.mockup.graphics.simpleIcon;strokeColor=#999999;" vertex="1" parent="1">
          <mxGeometry x="640" y="1040" width="50" height="50" as="geometry" />
        </mxCell>
        <mxCell id="_6JiYmLFMHh-bkGQwdYW-47" value="Text" style="text;html=1;align=center;verticalAlign=middle;whiteSpace=wrap;rounded=0;" vertex="1" parent="1">
          <mxGeometry x="490" y="1050" width="60" height="30" as="geometry" />
        </mxCell>
        <mxCell id="_6JiYmLFMHh-bkGQwdYW-48" value="Text" style="text;html=1;align=center;verticalAlign=middle;whiteSpace=wrap;rounded=0;" vertex="1" parent="1">
          <mxGeometry x="350" y="1050" width="60" height="30" as="geometry" />
        </mxCell>
        <mxCell id="_6JiYmLFMHh-bkGQwdYW-50" value="Copyright Text" style="text;html=1;align=center;verticalAlign=middle;whiteSpace=wrap;rounded=0;" vertex="1" parent="1">
          <mxGeometry x="60" y="1050" width="90" height="30" as="geometry" />
        </mxCell>
        <mxCell id="_6JiYmLFMHh-bkGQwdYW-61" value="" style="rounded=0;whiteSpace=wrap;html=1;fillColor=none;" vertex="1" parent="1">
          <mxGeometry x="30" y="470" width="790" height="200" as="geometry" />
        </mxCell>
        <mxCell id="_6JiYmLFMHh-bkGQwdYW-62" value="" style="verticalLabelPosition=bottom;shadow=0;dashed=0;align=center;html=1;verticalAlign=top;strokeWidth=1;shape=mxgraph.mockup.graphics.simpleIcon;strokeColor=#999999;" vertex="1" parent="1">
          <mxGeometry x="30" y="470" width="210" height="200" as="geometry" />
        </mxCell>
        <mxCell id="_6JiYmLFMHh-bkGQwdYW-63" value="" style="group" vertex="1" connectable="0" parent="1">
          <mxGeometry x="81" y="490" width="719" height="160" as="geometry" />
        </mxCell>
        <mxCell id="_6JiYmLFMHh-bkGQwdYW-64" value="&lt;b&gt;&amp;nbsp;River 2&lt;/b&gt;" style="text;html=1;align=center;verticalAlign=middle;whiteSpace=wrap;rounded=0;fontSize=20;" vertex="1" parent="_6JiYmLFMHh-bkGQwdYW-63">
          <mxGeometry width="108" height="30" as="geometry" />
        </mxCell>
        <mxCell id="_6JiYmLFMHh-bkGQwdYW-65" value="&lt;span style=&quot;color: rgb(62, 62, 62); font-family: &amp;quot;Trebuchet MS&amp;quot;, &amp;quot;Lucida Sans Unicode&amp;quot;, &amp;quot;Lucida Grande&amp;quot;, &amp;quot;Lucida Sans&amp;quot;, Arial, sans-serif; background-color: rgb(255, 255, 255);&quot;&gt;Winding through canyons in central Utah, in some of the most desolate land anywhere, the Green river flows towards the mighty Colorado river and the sea. High grey stone cliffs, beautiful desert scenery, and great rapids have made this run famous.&amp;nbsp;&lt;/span&gt;" style="text;html=1;align=left;verticalAlign=top;whiteSpace=wrap;rounded=0;fontSize=11;" vertex="1" parent="_6JiYmLFMHh-bkGQwdYW-63">
          <mxGeometry x="199" y="10" width="160" height="160" as="geometry" />
        </mxCell>
        <mxCell id="_6JiYmLFMHh-bkGQwdYW-66" value="&lt;span style=&quot;color: rgb(62, 62, 62); font-family: &amp;quot;Trebuchet MS&amp;quot;, &amp;quot;Lucida Sans Unicode&amp;quot;, &amp;quot;Lucida Grande&amp;quot;, &amp;quot;Lucida Sans&amp;quot;, Arial, sans-serif; background-color: rgb(255, 255, 255);&quot;&gt;This 84-mile trip runs from from Sand Wash to Swaseys Rapid (just outside Green River Utah) and boasts outstanding scenery, interesting geologic formations, evidence of prehistoric and historic human activity, and great whitewater opportunities.&lt;/span&gt;" style="text;html=1;align=left;verticalAlign=top;whiteSpace=wrap;rounded=0;fontSize=11;" vertex="1" parent="_6JiYmLFMHh-bkGQwdYW-63">
          <mxGeometry x="377" y="10" width="160" height="160" as="geometry" />
        </mxCell>
        <mxCell id="_6JiYmLFMHh-bkGQwdYW-67" value="&lt;div&gt;&lt;span style=&quot;color: rgb(62, 62, 62); font-family: &amp;quot;Trebuchet MS&amp;quot;, &amp;quot;Lucida Sans Unicode&amp;quot;, &amp;quot;Lucida Grande&amp;quot;, &amp;quot;Lucida Sans&amp;quot;, Arial, sans-serif; background-color: rgb(255, 255, 255);&quot;&gt;&lt;font style=&quot;font-size: 11px;&quot;&gt;Desolation is rated a Class II/III and is usually done in 6 days&lt;/font&gt;&lt;/span&gt;&lt;span style=&quot;color: rgb(62, 62, 62); font-family: &amp;quot;Trebuchet MS&amp;quot;, &amp;quot;Lucida Sans Unicode&amp;quot;, &amp;quot;Lucida Grande&amp;quot;, &amp;quot;Lucida Sans&amp;quot;, Arial, sans-serif; background-color: rgb(255, 255, 255);&quot;&gt;&lt;br&gt;&lt;/span&gt;&lt;/div&gt;&lt;span style=&quot;color: rgb(62, 62, 62); font-family: &amp;quot;Trebuchet MS&amp;quot;, &amp;quot;Lucida Sans Unicode&amp;quot;, &amp;quot;Lucida Grande&amp;quot;, &amp;quot;Lucida Sans&amp;quot;, Arial, sans-serif; background-color: rgb(255, 255, 255);&quot;&gt;Desolation Canyon has been recognized as a National Landmark. This designation is based on the uniqueness and rich history that the canyon tells.&lt;/span&gt;" style="text;html=1;align=left;verticalAlign=top;whiteSpace=wrap;rounded=0;fontSize=11;" vertex="1" parent="_6JiYmLFMHh-bkGQwdYW-63">
          <mxGeometry x="559" y="10" width="160" height="160" as="geometry" />
        </mxCell>
        <mxCell id="_6JiYmLFMHh-bkGQwdYW-68" value="" style="rounded=0;whiteSpace=wrap;html=1;fillColor=none;" vertex="1" parent="1">
          <mxGeometry x="30" y="730" width="790" height="200" as="geometry" />
        </mxCell>
        <mxCell id="_6JiYmLFMHh-bkGQwdYW-69" value="" style="verticalLabelPosition=bottom;shadow=0;dashed=0;align=center;html=1;verticalAlign=top;strokeWidth=1;shape=mxgraph.mockup.graphics.simpleIcon;strokeColor=#999999;" vertex="1" parent="1">
          <mxGeometry x="30" y="730" width="210" height="200" as="geometry" />
        </mxCell>
        <mxCell id="_6JiYmLFMHh-bkGQwdYW-70" value="" style="group" vertex="1" connectable="0" parent="1">
          <mxGeometry x="81" y="750" width="719" height="160" as="geometry" />
        </mxCell>
        <mxCell id="_6JiYmLFMHh-bkGQwdYW-71" value="&lt;b&gt;&amp;nbsp;River 3&lt;/b&gt;" style="text;html=1;align=center;verticalAlign=middle;whiteSpace=wrap;rounded=0;fontSize=20;" vertex="1" parent="_6JiYmLFMHh-bkGQwdYW-70">
          <mxGeometry width="108" height="30" as="geometry" />
        </mxCell>
        <mxCell id="_6JiYmLFMHh-bkGQwdYW-72" value="&lt;span style=&quot;color: rgb(62, 62, 62); font-family: &amp;quot;Trebuchet MS&amp;quot;, &amp;quot;Lucida Sans Unicode&amp;quot;, &amp;quot;Lucida Grande&amp;quot;, &amp;quot;Lucida Sans&amp;quot;, Arial, sans-serif; background-color: rgb(255, 255, 255);&quot;&gt;This is the grand daddy of all canyons and the grand daddy of all river trips. You will never forget your visit to the Grand Canyon.&amp;nbsp;&lt;/span&gt;&lt;span style=&quot;color: rgb(62, 62, 62); font-family: &amp;quot;Trebuchet MS&amp;quot;, &amp;quot;Lucida Sans Unicode&amp;quot;, &amp;quot;Lucida Grande&amp;quot;, &amp;quot;Lucida Sans&amp;quot;, Arial, sans-serif; background-color: rgb(255, 255, 255);&quot;&gt;Grand Canyon river rafting combines world-class whitewater with breathtaking scenery to make one truly unforgettable river experience&lt;/span&gt;" style="text;html=1;align=left;verticalAlign=top;whiteSpace=wrap;rounded=0;fontSize=11;" vertex="1" parent="_6JiYmLFMHh-bkGQwdYW-70">
          <mxGeometry x="199" width="160" height="160" as="geometry" />
        </mxCell>
        <mxCell id="_6JiYmLFMHh-bkGQwdYW-73" value="&lt;span style=&quot;color: rgb(62, 62, 62); font-family: &amp;quot;Trebuchet MS&amp;quot;, &amp;quot;Lucida Sans Unicode&amp;quot;, &amp;quot;Lucida Grande&amp;quot;, &amp;quot;Lucida Sans&amp;quot;, Arial, sans-serif; background-color: rgb(255, 255, 255);&quot;&gt;&amp;nbsp;The canyon is filled not only with exhilarating whitewater rapids, but with side canyons and ancient indian ruins accessible only by river.&lt;/span&gt;" style="text;html=1;align=left;verticalAlign=top;whiteSpace=wrap;rounded=0;fontSize=11;" vertex="1" parent="_6JiYmLFMHh-bkGQwdYW-70">
          <mxGeometry x="377" width="160" height="160" as="geometry" />
        </mxCell>
        <mxCell id="_6JiYmLFMHh-bkGQwdYW-74" value="&lt;span style=&quot;color: rgb(62, 62, 62); font-family: &amp;quot;Trebuchet MS&amp;quot;, &amp;quot;Lucida Sans Unicode&amp;quot;, &amp;quot;Lucida Grande&amp;quot;, &amp;quot;Lucida Sans&amp;quot;, Arial, sans-serif; background-color: rgb(255, 255, 255);&quot;&gt;CLASS I - X: The Grand Canyon uses a unique river rating scale. The rapids in the Canyon are technically rated I - X ( 1 - 10) to accommodate such a wide variety of rapids and river variances. However, most people are familiar with the regular I - V river rating scale, so we often refer to both.&lt;/span&gt;" style="text;html=1;align=left;verticalAlign=top;whiteSpace=wrap;rounded=0;fontSize=11;" vertex="1" parent="_6JiYmLFMHh-bkGQwdYW-70">
          <mxGeometry x="559" width="160" height="160" as="geometry" />
        </mxCell>
      </root>
    </mxGraphModel>
  </diagram>
</mxfile>
